solid HexaGoneSataStorage v2.004
facet normal 0.866024 -0.500003 0.000000
outer loop
vertex -203.435898 -171.999817 8.000000
vertex -199.394440 -164.999832 8.000000
vertex -203.435898 -171.999817 23.000000
endloop
endfacet
facet normal 0.866024 -0.500003 0.000000
outer loop
vertex -203.435898 -171.999817 23.000000
vertex -199.394440 -164.999832 8.000000
vertex -199.394440 -164.999832 23.000000
endloop
endfacet
facet normal 0.000000 -1.000000 0.000000
outer loop
vertex -211.518814 -171.999817 8.000000
vertex -203.435898 -171.999817 8.000000
vertex -211.518814 -171.999817 23.000000
endloop
endfacet
facet normal 0.000000 -1.000000 0.000000
outer loop
vertex -211.518814 -171.999817 23.000000
vertex -203.435898 -171.999817 8.000000
vertex -203.435898 -171.999817 23.000000
endloop
endfacet
facet normal -0.866026 -0.500000 0.000000
outer loop
vertex -215.560242 -164.999832 8.000000
vertex -211.518814 -171.999817 8.000000
vertex -215.560242 -164.999832 23.000000
endloop
endfacet
facet normal -0.866027 -0.499997 0.000000
outer loop
vertex -215.560242 -164.999832 23.000000
vertex -211.518814 -171.999817 8.000000
vertex -211.518814 -171.999817 23.000000
endloop
endfacet
facet normal -0.866028 0.499995 0.000000
outer loop
vertex -211.518814 -157.999817 8.000000
vertex -215.560242 -164.999832 8.000000
vertex -211.518814 -157.999817 23.000000
endloop
endfacet
facet normal -0.866027 0.499998 0.000000
outer loop
vertex -211.518814 -157.999817 23.000000
vertex -215.560242 -164.999832 8.000000
vertex -215.560242 -164.999832 23.000000
endloop
endfacet
facet normal 0.000000 1.000000 0.000000
outer loop
vertex -203.435898 -157.999817 8.000000
vertex -211.518814 -157.999817 8.000000
vertex -203.435898 -157.999817 23.000000
endloop
endfacet
facet normal 0.000000 1.000000 0.000000
outer loop
vertex -203.435898 -157.999817 23.000000
vertex -211.518814 -157.999817 8.000000
vertex -211.518814 -157.999817 23.000000
endloop
endfacet
facet normal 0.866025 0.500001 0.000000
outer loop
vertex -199.394440 -164.999832 8.000000
vertex -203.435898 -157.999817 8.000000
vertex -199.394440 -164.999832 23.000000
endloop
endfacet
facet normal 0.866025 0.500001 0.000000
outer loop
vertex -199.394440 -164.999832 23.000000
vertex -203.435898 -157.999817 8.000000
vertex -203.435898 -157.999817 23.000000
endloop
endfacet
facet normal 0.000000 0.000000 1.000000
outer loop
vertex -203.435898 -171.999817 23.000000
vertex -199.394440 -164.999832 23.000000
vertex -215.560242 -164.999832 23.000000
endloop
endfacet
facet normal 0.000000 0.000000 1.000000
outer loop
vertex -215.560242 -164.999832 23.000000
vertex -199.394440 -164.999832 23.000000
vertex -203.435898 -157.999817 23.000000
endloop
endfacet
facet normal 0.000000 0.000000 1.000000
outer loop
vertex -215.560242 -164.999832 23.000000
vertex -203.435898 -157.999817 23.000000
vertex -211.518814 -157.999817 23.000000
endloop
endfacet
facet normal 0.000000 0.000000 1.000000
outer loop
vertex -215.560242 -164.999832 23.000000
vertex -211.518814 -171.999817 23.000000
vertex -203.435898 -171.999817 23.000000
endloop
endfacet
facet normal 0.000000 0.000000 -1.000000
outer loop
vertex -211.518814 -157.999817 8.000000
vertex -203.435898 -157.999817 8.000000
vertex -215.560242 -164.999832 8.000000
endloop
endfacet
facet normal 0.000000 0.000000 -1.000000
outer loop
vertex -215.560242 -164.999832 8.000000
vertex -203.435898 -157.999817 8.000000
vertex -199.394440 -164.999832 8.000000
endloop
endfacet
facet normal 0.000000 0.000000 -1.000000
outer loop
vertex -215.560242 -164.999832 8.000000
vertex -199.394440 -164.999832 8.000000
vertex -203.435898 -171.999817 8.000000
endloop
endfacet
facet normal 0.000000 0.000000 -1.000000
outer loop
vertex -203.435898 -171.999817 8.000000
vertex -211.518814 -171.999817 8.000000
vertex -215.560242 -164.999832 8.000000
endloop
endfacet
endsolid HexaGoneSataStorage v2.004
