solid HexaGoneSataStorage v2.005
facet normal 0.866024 -0.500002 0.000000
outer loop
vertex -233.435898 -171.999817 8.000000
vertex -229.394440 -164.999832 8.000000
vertex -233.435898 -171.999817 11.000000
endloop
endfacet
facet normal 0.866026 -0.499998 0.000000
outer loop
vertex -233.435898 -171.999817 11.000000
vertex -229.394440 -164.999832 8.000000
vertex -229.394440 -164.999832 11.000000
endloop
endfacet
facet normal 0.000000 -1.000000 0.000000
outer loop
vertex -241.518814 -171.999817 8.000000
vertex -233.435898 -171.999817 8.000000
vertex -241.518814 -171.999817 11.000000
endloop
endfacet
facet normal 0.000000 -1.000000 0.000000
outer loop
vertex -241.518814 -171.999817 11.000000
vertex -233.435898 -171.999817 8.000000
vertex -233.435898 -171.999817 11.000000
endloop
endfacet
facet normal -0.866024 -0.500002 0.000000
outer loop
vertex -245.560242 -164.999832 8.000000
vertex -241.518814 -171.999817 8.000000
vertex -245.560242 -164.999832 11.000000
endloop
endfacet
facet normal -0.866029 -0.499994 0.000000
outer loop
vertex -245.560242 -164.999832 11.000000
vertex -241.518814 -171.999817 8.000000
vertex -241.518814 -171.999817 11.000000
endloop
endfacet
facet normal -0.866030 0.499993 0.000000
outer loop
vertex -241.518814 -157.999817 8.000000
vertex -245.560242 -164.999832 8.000000
vertex -241.518814 -157.999817 11.000000
endloop
endfacet
facet normal -0.866025 0.500000 0.000000
outer loop
vertex -241.518814 -157.999817 11.000000
vertex -245.560242 -164.999832 8.000000
vertex -245.560242 -164.999832 11.000000
endloop
endfacet
facet normal 0.000000 1.000000 0.000000
outer loop
vertex -233.435898 -157.999817 8.000000
vertex -241.518814 -157.999817 8.000000
vertex -233.435898 -157.999817 11.000000
endloop
endfacet
facet normal 0.000000 1.000000 0.000000
outer loop
vertex -233.435898 -157.999817 11.000000
vertex -241.518814 -157.999817 8.000000
vertex -241.518814 -157.999817 11.000000
endloop
endfacet
facet normal 0.866027 0.499996 0.000000
outer loop
vertex -229.394440 -164.999832 8.000000
vertex -233.435898 -157.999817 8.000000
vertex -229.394440 -164.999832 11.000000
endloop
endfacet
facet normal 0.866025 0.500000 0.000000
outer loop
vertex -229.394440 -164.999832 11.000000
vertex -233.435898 -157.999817 8.000000
vertex -233.435898 -157.999817 11.000000
endloop
endfacet
facet normal 0.000000 0.000000 1.000000
outer loop
vertex -233.435898 -171.999817 11.000000
vertex -229.394440 -164.999832 11.000000
vertex -245.560242 -164.999832 11.000000
endloop
endfacet
facet normal 0.000000 0.000000 1.000000
outer loop
vertex -245.560242 -164.999832 11.000000
vertex -229.394440 -164.999832 11.000000
vertex -233.435898 -157.999817 11.000000
endloop
endfacet
facet normal 0.000000 0.000000 1.000000
outer loop
vertex -245.560242 -164.999832 11.000000
vertex -233.435898 -157.999817 11.000000
vertex -241.518814 -157.999817 11.000000
endloop
endfacet
facet normal 0.000000 0.000000 1.000000
outer loop
vertex -245.560242 -164.999832 11.000000
vertex -241.518814 -171.999817 11.000000
vertex -233.435898 -171.999817 11.000000
endloop
endfacet
facet normal 0.000000 0.000000 -1.000000
outer loop
vertex -241.518814 -157.999817 8.000000
vertex -233.435898 -157.999817 8.000000
vertex -245.560242 -164.999832 8.000000
endloop
endfacet
facet normal 0.000000 0.000000 -1.000000
outer loop
vertex -245.560242 -164.999832 8.000000
vertex -233.435898 -157.999817 8.000000
vertex -229.394440 -164.999832 8.000000
endloop
endfacet
facet normal 0.000000 0.000000 -1.000000
outer loop
vertex -245.560242 -164.999832 8.000000
vertex -229.394440 -164.999832 8.000000
vertex -233.435898 -171.999817 8.000000
endloop
endfacet
facet normal 0.000000 0.000000 -1.000000
outer loop
vertex -233.435898 -171.999817 8.000000
vertex -241.518814 -171.999817 8.000000
vertex -245.560242 -164.999832 8.000000
endloop
endfacet
endsolid HexaGoneSataStorage v2.005
