solid HexaGoneSataStorage v2.007
facet normal 0.866021 -0.500007 0.000000
outer loop
vertex -293.435913 -171.999817 8.000000
vertex -289.394440 -164.999832 8.000000
vertex -293.435913 -171.999817 108.000000
endloop
endfacet
facet normal 0.866025 -0.500000 0.000000
outer loop
vertex -293.435913 -171.999817 108.000000
vertex -289.394440 -164.999832 8.000000
vertex -289.394440 -164.999832 108.000000
endloop
endfacet
facet normal 0.000000 -1.000000 0.000000
outer loop
vertex -301.518829 -171.999817 8.000000
vertex -293.435913 -171.999817 8.000000
vertex -301.518829 -171.999817 108.000000
endloop
endfacet
facet normal 0.000000 -1.000000 0.000000
outer loop
vertex -301.518829 -171.999817 108.000000
vertex -293.435913 -171.999817 8.000000
vertex -293.435913 -171.999817 108.000000
endloop
endfacet
facet normal -0.866029 -0.499993 0.000000
outer loop
vertex -305.560242 -164.999832 8.000000
vertex -301.518829 -171.999817 8.000000
vertex -305.560242 -164.999832 108.000000
endloop
endfacet
facet normal -0.866025 -0.500000 0.000000
outer loop
vertex -305.560242 -164.999832 108.000000
vertex -301.518829 -171.999817 8.000000
vertex -301.518829 -171.999817 108.000000
endloop
endfacet
facet normal -0.866026 0.499999 0.000000
outer loop
vertex -301.518799 -157.999817 8.000000
vertex -305.560242 -164.999832 8.000000
vertex -301.518799 -157.999817 108.000000
endloop
endfacet
facet normal -0.866026 0.499999 0.000000
outer loop
vertex -301.518799 -157.999817 108.000000
vertex -305.560242 -164.999832 8.000000
vertex -305.560242 -164.999832 108.000000
endloop
endfacet
facet normal 0.000000 1.000000 0.000000
outer loop
vertex -293.435913 -157.999817 8.000000
vertex -301.518799 -157.999817 8.000000
vertex -293.435913 -157.999817 108.000000
endloop
endfacet
facet normal 0.000000 1.000000 0.000000
outer loop
vertex -293.435913 -157.999817 108.000000
vertex -301.518799 -157.999817 8.000000
vertex -301.518799 -157.999817 108.000000
endloop
endfacet
facet normal 0.866026 0.499999 0.000000
outer loop
vertex -289.394440 -164.999832 8.000000
vertex -293.435913 -157.999817 8.000000
vertex -289.394440 -164.999832 108.000000
endloop
endfacet
facet normal 0.866022 0.500006 0.000000
outer loop
vertex -289.394440 -164.999832 108.000000
vertex -293.435913 -157.999817 8.000000
vertex -293.435913 -157.999817 108.000000
endloop
endfacet
facet normal 0.000000 0.000000 1.000000
outer loop
vertex -293.435913 -171.999817 108.000000
vertex -289.394440 -164.999832 108.000000
vertex -305.560242 -164.999832 108.000000
endloop
endfacet
facet normal 0.000000 0.000000 1.000000
outer loop
vertex -305.560242 -164.999832 108.000000
vertex -289.394440 -164.999832 108.000000
vertex -293.435913 -157.999817 108.000000
endloop
endfacet
facet normal 0.000000 0.000000 1.000000
outer loop
vertex -305.560242 -164.999832 108.000000
vertex -293.435913 -157.999817 108.000000
vertex -301.518799 -157.999817 108.000000
endloop
endfacet
facet normal 0.000000 0.000000 1.000000
outer loop
vertex -305.560242 -164.999832 108.000000
vertex -301.518829 -171.999817 108.000000
vertex -293.435913 -171.999817 108.000000
endloop
endfacet
facet normal 0.000000 0.000000 -1.000000
outer loop
vertex -301.518799 -157.999817 8.000000
vertex -293.435913 -157.999817 8.000000
vertex -305.560242 -164.999832 8.000000
endloop
endfacet
facet normal 0.000000 0.000000 -1.000000
outer loop
vertex -305.560242 -164.999832 8.000000
vertex -293.435913 -157.999817 8.000000
vertex -289.394440 -164.999832 8.000000
endloop
endfacet
facet normal 0.000000 0.000000 -1.000000
outer loop
vertex -305.560242 -164.999832 8.000000
vertex -289.394440 -164.999832 8.000000
vertex -293.435913 -171.999817 8.000000
endloop
endfacet
facet normal 0.000000 0.000000 -1.000000
outer loop
vertex -293.435913 -171.999817 8.000000
vertex -301.518829 -171.999817 8.000000
vertex -305.560242 -164.999832 8.000000
endloop
endfacet
endsolid HexaGoneSataStorage v2.007
