solid HexaGoneSataStorage v2.008
facet normal -0.866030 -0.499993 0.000000
outer loop
vertex -345.560242 -164.999832 13.000000
vertex -341.518829 -171.999817 13.000000
vertex -345.560242 -164.999832 108.000000
endloop
endfacet
facet normal -0.866025 -0.500000 0.000000
outer loop
vertex -345.560242 -164.999832 108.000000
vertex -341.518829 -171.999817 13.000000
vertex -341.518829 -171.999817 108.000000
endloop
endfacet
facet normal 0.000000 -1.000000 0.000000
outer loop
vertex -341.518829 -171.999817 13.000000
vertex -333.435913 -171.999817 13.000000
vertex -341.518829 -171.999817 108.000000
endloop
endfacet
facet normal 0.000000 -1.000000 0.000000
outer loop
vertex -341.518829 -171.999817 108.000000
vertex -333.435913 -171.999817 13.000000
vertex -333.435913 -171.999817 108.000000
endloop
endfacet
facet normal 0.866021 -0.500008 0.000000
outer loop
vertex -333.435913 -171.999817 13.000000
vertex -329.394440 -164.999832 13.000000
vertex -333.435913 -171.999817 108.000000
endloop
endfacet
facet normal 0.866027 -0.499997 0.000000
outer loop
vertex -333.435913 -171.999817 108.000000
vertex -329.394440 -164.999832 13.000000
vertex -329.394440 -164.999832 108.000000
endloop
endfacet
facet normal -0.866026 0.499999 0.000000
outer loop
vertex -341.518799 -157.999817 13.000000
vertex -345.560242 -164.999832 13.000000
vertex -341.518799 -157.999817 108.000000
endloop
endfacet
facet normal -0.866026 0.499999 0.000000
outer loop
vertex -341.518799 -157.999817 108.000000
vertex -345.560242 -164.999832 13.000000
vertex -345.560242 -164.999832 108.000000
endloop
endfacet
facet normal 0.000000 1.000000 0.000000
outer loop
vertex -333.435913 -157.999817 13.000000
vertex -341.518799 -157.999817 13.000000
vertex -333.435913 -157.999817 108.000000
endloop
endfacet
facet normal 0.000000 1.000000 0.000000
outer loop
vertex -333.435913 -157.999817 108.000000
vertex -341.518799 -157.999817 13.000000
vertex -341.518799 -157.999817 108.000000
endloop
endfacet
facet normal 0.866028 0.499995 0.000000
outer loop
vertex -329.394440 -164.999832 13.000000
vertex -333.435913 -157.999817 13.000000
vertex -329.394440 -164.999832 108.000000
endloop
endfacet
facet normal 0.866022 0.500006 0.000000
outer loop
vertex -329.394440 -164.999832 108.000000
vertex -333.435913 -157.999817 13.000000
vertex -333.435913 -157.999817 108.000000
endloop
endfacet
facet normal 0.000000 0.000000 1.000000
outer loop
vertex -333.435913 -171.999817 108.000000
vertex -329.394440 -164.999832 108.000000
vertex -345.560242 -164.999832 108.000000
endloop
endfacet
facet normal 0.000000 0.000000 1.000000
outer loop
vertex -345.560242 -164.999832 108.000000
vertex -329.394440 -164.999832 108.000000
vertex -333.435913 -157.999817 108.000000
endloop
endfacet
facet normal 0.000000 0.000000 1.000000
outer loop
vertex -345.560242 -164.999832 108.000000
vertex -333.435913 -157.999817 108.000000
vertex -341.518799 -157.999817 108.000000
endloop
endfacet
facet normal 0.000000 0.000000 1.000000
outer loop
vertex -345.560242 -164.999832 108.000000
vertex -341.518829 -171.999817 108.000000
vertex -333.435913 -171.999817 108.000000
endloop
endfacet
facet normal -0.866028 -0.499996 0.000000
outer loop
vertex -349.024323 -164.999832 8.000000
vertex -343.250885 -174.999817 8.000000
vertex -349.024323 -164.999832 13.000000
endloop
endfacet
facet normal -0.866028 -0.499996 0.000000
outer loop
vertex -349.024323 -164.999832 13.000000
vertex -343.250885 -174.999817 8.000000
vertex -343.250885 -174.999817 13.000000
endloop
endfacet
facet normal -0.866028 0.499995 0.000000
outer loop
vertex -343.250885 -154.999817 8.000000
vertex -349.024323 -164.999832 8.000000
vertex -343.250885 -154.999817 13.000000
endloop
endfacet
facet normal -0.866028 0.499995 0.000000
outer loop
vertex -343.250885 -154.999817 13.000000
vertex -349.024323 -164.999832 8.000000
vertex -349.024323 -164.999832 13.000000
endloop
endfacet
facet normal 0.000000 1.000000 0.000000
outer loop
vertex -331.703857 -154.999817 8.000000
vertex -343.250885 -154.999817 8.000000
vertex -331.703857 -154.999817 13.000000
endloop
endfacet
facet normal 0.000000 1.000000 0.000000
outer loop
vertex -331.703857 -154.999817 13.000000
vertex -343.250885 -154.999817 8.000000
vertex -343.250885 -154.999817 13.000000
endloop
endfacet
facet normal 0.866026 0.499998 0.000000
outer loop
vertex -325.930359 -164.999832 8.000000
vertex -331.703857 -154.999817 8.000000
vertex -325.930359 -164.999832 13.000000
endloop
endfacet
facet normal 0.866026 0.499998 0.000000
outer loop
vertex -325.930359 -164.999832 13.000000
vertex -331.703857 -154.999817 8.000000
vertex -331.703857 -154.999817 13.000000
endloop
endfacet
facet normal 0.866026 -0.499999 0.000000
outer loop
vertex -331.703857 -174.999817 8.000000
vertex -325.930359 -164.999832 8.000000
vertex -331.703857 -174.999817 13.000000
endloop
endfacet
facet normal 0.866026 -0.499999 0.000000
outer loop
vertex -331.703857 -174.999817 13.000000
vertex -325.930359 -164.999832 8.000000
vertex -325.930359 -164.999832 13.000000
endloop
endfacet
facet normal 0.000000 -1.000000 0.000000
outer loop
vertex -343.250885 -174.999817 8.000000
vertex -331.703857 -174.999817 8.000000
vertex -343.250885 -174.999817 13.000000
endloop
endfacet
facet normal 0.000000 -1.000000 0.000000
outer loop
vertex -343.250885 -174.999817 13.000000
vertex -331.703857 -174.999817 8.000000
vertex -331.703857 -174.999817 13.000000
endloop
endfacet
facet normal 0.000000 0.000000 1.000000
outer loop
vertex -333.435913 -157.999817 13.000000
vertex -329.394440 -164.999832 13.000000
vertex -325.930359 -164.999832 13.000000
endloop
endfacet
facet normal 0.000000 0.000000 1.000000
outer loop
vertex -325.930359 -164.999832 13.000000
vertex -329.394440 -164.999832 13.000000
vertex -333.435913 -171.999817 13.000000
endloop
endfacet
facet normal 0.000000 0.000000 1.000000
outer loop
vertex -325.930359 -164.999832 13.000000
vertex -333.435913 -171.999817 13.000000
vertex -331.703857 -174.999817 13.000000
endloop
endfacet
facet normal 0.000000 0.000000 1.000000
outer loop
vertex -331.703857 -174.999817 13.000000
vertex -333.435913 -171.999817 13.000000
vertex -341.518829 -171.999817 13.000000
endloop
endfacet
facet normal 0.000000 0.000000 1.000000
outer loop
vertex -331.703857 -174.999817 13.000000
vertex -341.518829 -171.999817 13.000000
vertex -343.250885 -174.999817 13.000000
endloop
endfacet
facet normal 0.000000 0.000000 1.000000
outer loop
vertex -343.250885 -174.999817 13.000000
vertex -341.518829 -171.999817 13.000000
vertex -349.024323 -164.999832 13.000000
endloop
endfacet
facet normal 0.000000 0.000000 1.000000
outer loop
vertex -349.024323 -164.999832 13.000000
vertex -341.518829 -171.999817 13.000000
vertex -345.560242 -164.999832 13.000000
endloop
endfacet
facet normal 0.000000 0.000000 1.000000
outer loop
vertex -349.024323 -164.999832 13.000000
vertex -345.560242 -164.999832 13.000000
vertex -341.518799 -157.999817 13.000000
endloop
endfacet
facet normal 0.000000 0.000000 1.000000
outer loop
vertex -333.435913 -157.999817 13.000000
vertex -331.703857 -154.999817 13.000000
vertex -341.518799 -157.999817 13.000000
endloop
endfacet
facet normal 0.000000 0.000000 1.000000
outer loop
vertex -341.518799 -157.999817 13.000000
vertex -331.703857 -154.999817 13.000000
vertex -343.250885 -154.999817 13.000000
endloop
endfacet
facet normal 0.000000 0.000000 1.000000
outer loop
vertex -341.518799 -157.999817 13.000000
vertex -343.250885 -154.999817 13.000000
vertex -349.024323 -164.999832 13.000000
endloop
endfacet
facet normal 0.000000 0.000000 1.000000
outer loop
vertex -331.703857 -154.999817 13.000000
vertex -333.435913 -157.999817 13.000000
vertex -325.930359 -164.999832 13.000000
endloop
endfacet
facet normal 0.000000 0.000000 -1.000000
outer loop
vertex -343.250885 -174.999817 8.000000
vertex -349.024323 -164.999832 8.000000
vertex -331.703857 -174.999817 8.000000
endloop
endfacet
facet normal 0.000000 0.000000 -1.000000
outer loop
vertex -331.703857 -174.999817 8.000000
vertex -349.024323 -164.999832 8.000000
vertex -325.930359 -164.999832 8.000000
endloop
endfacet
facet normal 0.000000 0.000000 -1.000000
outer loop
vertex -325.930359 -164.999832 8.000000
vertex -349.024323 -164.999832 8.000000
vertex -331.703857 -154.999817 8.000000
endloop
endfacet
facet normal 0.000000 0.000000 -1.000000
outer loop
vertex -331.703857 -154.999817 8.000000
vertex -349.024323 -164.999832 8.000000
vertex -343.250885 -154.999817 8.000000
endloop
endfacet
endsolid HexaGoneSataStorage v2.008
