solid HexaGoneSataStorage v2.003
facet normal 0.000000 0.000000 -1.000000
outer loop
vertex -181.518814 -157.999817 6.000000
vertex -173.435898 -157.999817 6.000000
vertex -185.560242 -164.999832 6.000000
endloop
endfacet
facet normal 0.000000 0.000000 -1.000000
outer loop
vertex -185.560242 -164.999832 6.000000
vertex -173.435898 -157.999817 6.000000
vertex -169.394440 -164.999832 6.000000
endloop
endfacet
facet normal 0.000000 0.000000 -1.000000
outer loop
vertex -185.560242 -164.999832 6.000000
vertex -169.394440 -164.999832 6.000000
vertex -173.435898 -171.999817 6.000000
endloop
endfacet
facet normal 0.000000 0.000000 -1.000000
outer loop
vertex -173.435898 -171.999817 6.000000
vertex -181.518814 -171.999817 6.000000
vertex -185.560242 -164.999832 6.000000
endloop
endfacet
facet normal 0.866024 0.500002 0.000000
outer loop
vertex -185.560242 -164.999832 6.000000
vertex -181.518814 -171.999817 6.000000
vertex -185.560242 -164.999832 3.000000
endloop
endfacet
facet normal 0.866029 0.499994 0.000000
outer loop
vertex -185.560242 -164.999832 3.000000
vertex -181.518814 -171.999817 6.000000
vertex -181.518814 -171.999817 3.000000
endloop
endfacet
facet normal 0.000000 1.000000 0.000000
outer loop
vertex -181.518814 -171.999817 6.000000
vertex -173.435898 -171.999817 6.000000
vertex -181.518814 -171.999817 3.000000
endloop
endfacet
facet normal 0.000000 1.000000 0.000000
outer loop
vertex -181.518814 -171.999817 3.000000
vertex -173.435898 -171.999817 6.000000
vertex -173.435898 -171.999817 3.000000
endloop
endfacet
facet normal -0.866024 0.500002 0.000000
outer loop
vertex -173.435898 -171.999817 6.000000
vertex -169.394440 -164.999832 6.000000
vertex -173.435898 -171.999817 3.000000
endloop
endfacet
facet normal -0.866025 0.500000 0.000000
outer loop
vertex -173.435898 -171.999817 3.000000
vertex -169.394440 -164.999832 6.000000
vertex -169.394440 -164.999832 3.000000
endloop
endfacet
facet normal -0.866026 -0.499998 0.000000
outer loop
vertex -169.394440 -164.999832 6.000000
vertex -173.435898 -157.999817 6.000000
vertex -169.394440 -164.999832 3.000000
endloop
endfacet
facet normal -0.866025 -0.500000 0.000000
outer loop
vertex -169.394440 -164.999832 3.000000
vertex -173.435898 -157.999817 6.000000
vertex -173.435898 -157.999817 3.000000
endloop
endfacet
facet normal 0.000000 -1.000000 0.000000
outer loop
vertex -173.435898 -157.999817 6.000000
vertex -181.518814 -157.999817 6.000000
vertex -173.435898 -157.999817 3.000000
endloop
endfacet
facet normal 0.000000 -1.000000 0.000000
outer loop
vertex -173.435898 -157.999817 3.000000
vertex -181.518814 -157.999817 6.000000
vertex -181.518814 -157.999817 3.000000
endloop
endfacet
facet normal 0.866030 -0.499993 0.000000
outer loop
vertex -181.518814 -157.999817 6.000000
vertex -185.560242 -164.999832 6.000000
vertex -181.518814 -157.999817 3.000000
endloop
endfacet
facet normal 0.866025 -0.500000 0.000000
outer loop
vertex -181.518814 -157.999817 3.000000
vertex -185.560242 -164.999832 6.000000
vertex -185.560242 -164.999832 3.000000
endloop
endfacet
facet normal 0.000000 0.000000 1.000000
outer loop
vertex -186.714935 -164.999832 8.000000
vertex -182.096161 -172.999817 8.000000
vertex -181.518814 -171.999817 8.000000
endloop
endfacet
facet normal 0.000000 0.000000 1.000000
outer loop
vertex -181.518814 -171.999817 8.000000
vertex -182.096161 -172.999817 8.000000
vertex -172.858551 -172.999817 8.000000
endloop
endfacet
facet normal 0.000000 0.000000 1.000000
outer loop
vertex -181.518814 -171.999817 8.000000
vertex -172.858551 -172.999817 8.000000
vertex -173.435898 -171.999817 8.000000
endloop
endfacet
facet normal 0.000000 0.000000 1.000000
outer loop
vertex -173.435898 -171.999817 8.000000
vertex -172.858551 -172.999817 8.000000
vertex -168.239746 -164.999832 8.000000
endloop
endfacet
facet normal 0.000000 0.000000 1.000000
outer loop
vertex -173.435898 -171.999817 8.000000
vertex -168.239746 -164.999832 8.000000
vertex -169.394440 -164.999832 8.000000
endloop
endfacet
facet normal 0.000000 0.000000 1.000000
outer loop
vertex -169.394440 -164.999832 8.000000
vertex -168.239746 -164.999832 8.000000
vertex -173.435898 -157.999817 8.000000
endloop
endfacet
facet normal 0.000000 0.000000 1.000000
outer loop
vertex -173.435898 -157.999817 8.000000
vertex -168.239746 -164.999832 8.000000
vertex -172.858551 -156.999817 8.000000
endloop
endfacet
facet normal 0.000000 0.000000 1.000000
outer loop
vertex -173.435898 -157.999817 8.000000
vertex -172.858551 -156.999817 8.000000
vertex -181.518814 -157.999817 8.000000
endloop
endfacet
facet normal 0.000000 0.000000 1.000000
outer loop
vertex -181.518814 -157.999817 8.000000
vertex -172.858551 -156.999817 8.000000
vertex -182.096161 -156.999817 8.000000
endloop
endfacet
facet normal 0.000000 0.000000 1.000000
outer loop
vertex -181.518814 -157.999817 8.000000
vertex -182.096161 -156.999817 8.000000
vertex -186.714935 -164.999832 8.000000
endloop
endfacet
facet normal 0.000000 0.000000 1.000000
outer loop
vertex -181.518814 -171.999817 8.000000
vertex -185.560242 -164.999832 8.000000
vertex -186.714935 -164.999832 8.000000
endloop
endfacet
facet normal 0.000000 0.000000 1.000000
outer loop
vertex -186.714935 -164.999832 8.000000
vertex -185.560242 -164.999832 8.000000
vertex -181.518814 -157.999817 8.000000
endloop
endfacet
facet normal 0.866025 -0.500000 0.000000
outer loop
vertex -168.239746 -164.999832 8.000000
vertex -172.858551 -172.999817 8.000000
vertex -168.239746 -164.999832 3.000000
endloop
endfacet
facet normal 0.866025 -0.500000 0.000000
outer loop
vertex -168.239746 -164.999832 3.000000
vertex -172.858551 -172.999817 8.000000
vertex -172.858551 -172.999817 3.000000
endloop
endfacet
facet normal 0.866026 0.499999 0.000000
outer loop
vertex -172.858551 -156.999817 8.000000
vertex -168.239746 -164.999832 8.000000
vertex -172.858551 -156.999817 3.000000
endloop
endfacet
facet normal 0.866026 0.499999 0.000000
outer loop
vertex -172.858551 -156.999817 3.000000
vertex -168.239746 -164.999832 8.000000
vertex -168.239746 -164.999832 3.000000
endloop
endfacet
facet normal 0.000000 1.000000 0.000000
outer loop
vertex -182.096161 -156.999817 8.000000
vertex -172.858551 -156.999817 8.000000
vertex -182.096161 -156.999817 3.000000
endloop
endfacet
facet normal 0.000000 1.000000 0.000000
outer loop
vertex -182.096161 -156.999817 3.000000
vertex -172.858551 -156.999817 8.000000
vertex -172.858551 -156.999817 3.000000
endloop
endfacet
facet normal -0.866026 0.499999 0.000000
outer loop
vertex -186.714935 -164.999832 8.000000
vertex -182.096161 -156.999817 8.000000
vertex -186.714935 -164.999832 3.000000
endloop
endfacet
facet normal -0.866028 0.499995 0.000000
outer loop
vertex -186.714935 -164.999832 3.000000
vertex -182.096161 -156.999817 8.000000
vertex -182.096161 -156.999817 3.000000
endloop
endfacet
facet normal -0.866027 -0.499996 0.000000
outer loop
vertex -182.096161 -172.999817 8.000000
vertex -186.714935 -164.999832 8.000000
vertex -182.096161 -172.999817 3.000000
endloop
endfacet
facet normal -0.866025 -0.500000 0.000000
outer loop
vertex -182.096161 -172.999817 3.000000
vertex -186.714935 -164.999832 8.000000
vertex -186.714935 -164.999832 3.000000
endloop
endfacet
facet normal 0.000000 -1.000000 0.000000
outer loop
vertex -172.858551 -172.999817 8.000000
vertex -182.096161 -172.999817 8.000000
vertex -172.858551 -172.999817 3.000000
endloop
endfacet
facet normal 0.000000 -1.000000 0.000000
outer loop
vertex -172.858551 -172.999817 3.000000
vertex -182.096161 -172.999817 8.000000
vertex -182.096161 -172.999817 3.000000
endloop
endfacet
facet normal 0.000000 0.000000 -1.000000
outer loop
vertex -181.518814 -157.999817 3.000000
vertex -172.858551 -156.999817 3.000000
vertex -173.435898 -157.999817 3.000000
endloop
endfacet
facet normal 0.000000 0.000000 -1.000000
outer loop
vertex -173.435898 -157.999817 3.000000
vertex -172.858551 -156.999817 3.000000
vertex -168.239746 -164.999832 3.000000
endloop
endfacet
facet normal 0.000000 0.000000 -1.000000
outer loop
vertex -173.435898 -157.999817 3.000000
vertex -168.239746 -164.999832 3.000000
vertex -169.394440 -164.999832 3.000000
endloop
endfacet
facet normal 0.000000 0.000000 -1.000000
outer loop
vertex -169.394440 -164.999832 3.000000
vertex -168.239746 -164.999832 3.000000
vertex -173.435898 -171.999817 3.000000
endloop
endfacet
facet normal 0.000000 0.000000 -1.000000
outer loop
vertex -173.435898 -171.999817 3.000000
vertex -168.239746 -164.999832 3.000000
vertex -172.858551 -172.999817 3.000000
endloop
endfacet
facet normal 0.000000 0.000000 -1.000000
outer loop
vertex -173.435898 -171.999817 3.000000
vertex -172.858551 -172.999817 3.000000
vertex -181.518814 -171.999817 3.000000
endloop
endfacet
facet normal 0.000000 0.000000 -1.000000
outer loop
vertex -181.518814 -171.999817 3.000000
vertex -172.858551 -172.999817 3.000000
vertex -182.096161 -172.999817 3.000000
endloop
endfacet
facet normal 0.000000 0.000000 -1.000000
outer loop
vertex -181.518814 -171.999817 3.000000
vertex -182.096161 -172.999817 3.000000
vertex -186.714935 -164.999832 3.000000
endloop
endfacet
facet normal 0.000000 0.000000 -1.000000
outer loop
vertex -185.560242 -164.999832 3.000000
vertex -186.714935 -164.999832 3.000000
vertex -181.518814 -157.999817 3.000000
endloop
endfacet
facet normal 0.000000 0.000000 -1.000000
outer loop
vertex -181.518814 -157.999817 3.000000
vertex -186.714935 -164.999832 3.000000
vertex -182.096161 -156.999817 3.000000
endloop
endfacet
facet normal 0.000000 0.000000 -1.000000
outer loop
vertex -181.518814 -157.999817 3.000000
vertex -182.096161 -156.999817 3.000000
vertex -172.858551 -156.999817 3.000000
endloop
endfacet
facet normal 0.000000 0.000000 -1.000000
outer loop
vertex -185.560242 -164.999832 3.000000
vertex -181.518814 -171.999817 3.000000
vertex -186.714935 -164.999832 3.000000
endloop
endfacet
facet normal 0.866023 -0.500003 0.000000
outer loop
vertex -173.435898 -171.999817 8.000000
vertex -169.394440 -164.999832 8.000000
vertex -173.435898 -171.999817 18.000000
endloop
endfacet
facet normal 0.866025 -0.500001 0.000000
outer loop
vertex -173.435898 -171.999817 18.000000
vertex -169.394440 -164.999832 8.000000
vertex -169.394440 -164.999832 18.000000
endloop
endfacet
facet normal 0.000000 -1.000000 0.000000
outer loop
vertex -181.518814 -171.999817 8.000000
vertex -173.435898 -171.999817 8.000000
vertex -181.518814 -171.999817 18.000000
endloop
endfacet
facet normal 0.000000 -1.000000 0.000000
outer loop
vertex -181.518814 -171.999817 18.000000
vertex -173.435898 -171.999817 8.000000
vertex -173.435898 -171.999817 18.000000
endloop
endfacet
facet normal -0.866026 -0.499999 0.000000
outer loop
vertex -185.560242 -164.999832 8.000000
vertex -181.518814 -171.999817 8.000000
vertex -185.560242 -164.999832 18.000000
endloop
endfacet
facet normal -0.866026 -0.499999 0.000000
outer loop
vertex -185.560242 -164.999832 18.000000
vertex -181.518814 -171.999817 8.000000
vertex -181.518814 -171.999817 18.000000
endloop
endfacet
facet normal -0.866027 0.499997 0.000000
outer loop
vertex -181.518814 -157.999817 8.000000
vertex -185.560242 -164.999832 8.000000
vertex -181.518814 -157.999817 18.000000
endloop
endfacet
facet normal -0.866027 0.499997 0.000000
outer loop
vertex -181.518814 -157.999817 18.000000
vertex -185.560242 -164.999832 8.000000
vertex -185.560242 -164.999832 18.000000
endloop
endfacet
facet normal 0.000000 1.000000 0.000000
outer loop
vertex -173.435898 -157.999817 8.000000
vertex -181.518814 -157.999817 8.000000
vertex -173.435898 -157.999817 18.000000
endloop
endfacet
facet normal 0.000000 1.000000 0.000000
outer loop
vertex -173.435898 -157.999817 18.000000
vertex -181.518814 -157.999817 8.000000
vertex -181.518814 -157.999817 18.000000
endloop
endfacet
facet normal 0.866026 0.499999 0.000000
outer loop
vertex -169.394440 -164.999832 8.000000
vertex -173.435898 -157.999817 8.000000
vertex -169.394440 -164.999832 18.000000
endloop
endfacet
facet normal 0.866024 0.500002 0.000000
outer loop
vertex -169.394440 -164.999832 18.000000
vertex -173.435898 -157.999817 8.000000
vertex -173.435898 -157.999817 18.000000
endloop
endfacet
facet normal 0.000000 0.000000 1.000000
outer loop
vertex -173.435898 -171.999817 18.000000
vertex -169.394440 -164.999832 18.000000
vertex -185.560242 -164.999832 18.000000
endloop
endfacet
facet normal 0.000000 0.000000 1.000000
outer loop
vertex -185.560242 -164.999832 18.000000
vertex -169.394440 -164.999832 18.000000
vertex -173.435898 -157.999817 18.000000
endloop
endfacet
facet normal 0.000000 0.000000 1.000000
outer loop
vertex -185.560242 -164.999832 18.000000
vertex -173.435898 -157.999817 18.000000
vertex -181.518814 -157.999817 18.000000
endloop
endfacet
facet normal 0.000000 0.000000 1.000000
outer loop
vertex -185.560242 -164.999832 18.000000
vertex -181.518814 -171.999817 18.000000
vertex -173.435898 -171.999817 18.000000
endloop
endfacet
endsolid HexaGoneSataStorage v2.003
