solid HexaGoneSataStorage v2.006
facet normal 0.866022 -0.500006 0.000000
outer loop
vertex -263.435913 -171.999817 8.000000
vertex -259.394440 -164.999832 8.000000
vertex -263.435913 -171.999817 28.000000
endloop
endfacet
facet normal 0.866025 -0.500001 0.000000
outer loop
vertex -263.435913 -171.999817 28.000000
vertex -259.394440 -164.999832 8.000000
vertex -259.394440 -164.999832 28.000000
endloop
endfacet
facet normal 0.000000 -1.000000 0.000000
outer loop
vertex -271.518829 -171.999817 8.000000
vertex -263.435913 -171.999817 8.000000
vertex -271.518829 -171.999817 28.000000
endloop
endfacet
facet normal 0.000000 -1.000000 0.000000
outer loop
vertex -271.518829 -171.999817 28.000000
vertex -263.435913 -171.999817 8.000000
vertex -263.435913 -171.999817 28.000000
endloop
endfacet
facet normal -0.866027 -0.499997 0.000000
outer loop
vertex -275.560242 -164.999832 8.000000
vertex -271.518829 -171.999817 8.000000
vertex -275.560242 -164.999832 28.000000
endloop
endfacet
facet normal -0.866025 -0.500001 0.000000
outer loop
vertex -275.560242 -164.999832 28.000000
vertex -271.518829 -171.999817 8.000000
vertex -271.518829 -171.999817 28.000000
endloop
endfacet
facet normal -0.866026 0.499999 0.000000
outer loop
vertex -271.518799 -157.999817 8.000000
vertex -275.560242 -164.999832 8.000000
vertex -271.518799 -157.999817 28.000000
endloop
endfacet
facet normal -0.866026 0.499999 0.000000
outer loop
vertex -271.518799 -157.999817 28.000000
vertex -275.560242 -164.999832 8.000000
vertex -275.560242 -164.999832 28.000000
endloop
endfacet
facet normal 0.000000 1.000000 0.000000
outer loop
vertex -263.435913 -157.999817 8.000000
vertex -271.518799 -157.999817 8.000000
vertex -263.435913 -157.999817 28.000000
endloop
endfacet
facet normal 0.000000 1.000000 0.000000
outer loop
vertex -263.435913 -157.999817 28.000000
vertex -271.518799 -157.999817 8.000000
vertex -271.518799 -157.999817 28.000000
endloop
endfacet
facet normal 0.866026 0.499999 0.000000
outer loop
vertex -259.394440 -164.999832 8.000000
vertex -263.435913 -157.999817 8.000000
vertex -259.394440 -164.999832 28.000000
endloop
endfacet
facet normal 0.866023 0.500004 0.000000
outer loop
vertex -259.394440 -164.999832 28.000000
vertex -263.435913 -157.999817 8.000000
vertex -263.435913 -157.999817 28.000000
endloop
endfacet
facet normal 0.000000 0.000000 1.000000
outer loop
vertex -263.435913 -171.999817 28.000000
vertex -259.394440 -164.999832 28.000000
vertex -275.560242 -164.999832 28.000000
endloop
endfacet
facet normal 0.000000 0.000000 1.000000
outer loop
vertex -275.560242 -164.999832 28.000000
vertex -259.394440 -164.999832 28.000000
vertex -263.435913 -157.999817 28.000000
endloop
endfacet
facet normal 0.000000 0.000000 1.000000
outer loop
vertex -275.560242 -164.999832 28.000000
vertex -263.435913 -157.999817 28.000000
vertex -271.518799 -157.999817 28.000000
endloop
endfacet
facet normal 0.000000 0.000000 1.000000
outer loop
vertex -275.560242 -164.999832 28.000000
vertex -271.518829 -171.999817 28.000000
vertex -263.435913 -171.999817 28.000000
endloop
endfacet
facet normal 0.000000 0.000000 -1.000000
outer loop
vertex -271.518799 -157.999817 8.000000
vertex -263.435913 -157.999817 8.000000
vertex -275.560242 -164.999832 8.000000
endloop
endfacet
facet normal 0.000000 0.000000 -1.000000
outer loop
vertex -275.560242 -164.999832 8.000000
vertex -263.435913 -157.999817 8.000000
vertex -259.394440 -164.999832 8.000000
endloop
endfacet
facet normal 0.000000 0.000000 -1.000000
outer loop
vertex -275.560242 -164.999832 8.000000
vertex -259.394440 -164.999832 8.000000
vertex -263.435913 -171.999817 8.000000
endloop
endfacet
facet normal 0.000000 0.000000 -1.000000
outer loop
vertex -263.435913 -171.999817 8.000000
vertex -271.518829 -171.999817 8.000000
vertex -275.560242 -164.999832 8.000000
endloop
endfacet
endsolid HexaGoneSataStorage v2.006
